{"asset":{"version":"2.0","generator":"THREE.GLTFExporter"},"scenes":[{"name":"default","nodes":[0]}],"scene":0,"nodes":[{"name":"default","mesh":0}],"bufferViews":[{"buffer":0,"byteOffset":0,"byteLength":22020,"target":34962,"byteStride":12},{"buffer":0,"byteOffset":22020,"byteLength":22020,"target":34962,"byteStride":12},{"buffer":0,"byteOffset":44040,"byteLength":14680,"target":34962,"byteStride":8},{"buffer":0,"byteOffset":58720,"byteLength":14680,"target":34962,"byteStride":8},{"buffer":0,"byteOffset":73400,"byteLength":5856,"target":34963}],"buffers":[{"byteLength":79256,"uri":"data:application/octet-stream;base64,"}],"accessors":[{"bufferView":0,"componentType":5126,"count":1835,"max":[18,9.28125,18],"min":[-18,-0.001514795352704823,-18],"type":"VEC3"},{"bufferView":1,"componentType":5126,"count":1835,"max":[1,1,1],"min":[-1,0,-1],"type":"VEC3"},{"bufferView":2,"componentType":5126,"count":1835,"max":[1,1],"min":[0.3125,0.0625],"type":"VEC2"},{"bufferView":3,"componentType":5126,"count":1835,"max":[-1,0],"min":[-1,0],"type":"VEC2"},{"bufferView":4,"componentType":5123,"count":2928,"max":[1834],"min":[0],"type":"SCALAR"}],"materials":[{"pbrMetallicRoughness":{"metallicFactor":0,"roughnessFactor":1,"baseColorTexture":{"index":0}},"alphaMode":"MASK","alphaCutoff":0.01,"name":"texture_1"}],"textures":[{"sampler":0,"source":0,"name":"texture_1"}],"samplers":[{"magFilter":9728,"minFilter":9728,"wrapS":33071,"wrapT":33071}],"images":[{"mimeType":"image/png","uri":"data:image/png;base64,"}],"meshes":[{"primitives":[{"mode":4,"attributes":{"POSITION":0,"NORMAL":1,"TEXCOORD_0":2,"_UVANIMATION":3},"indices":4,"material":0}]}]}