{"asset":{"version":"2.0","generator":"THREE.GLTFExporter"},"scenes":[{"name":"default","nodes":[0]}],"scene":0,"nodes":[{"name":"default","mesh":0}],"bufferViews":[{"buffer":0,"byteOffset":0,"byteLength":22188,"target":34962,"byteStride":12},{"buffer":0,"byteOffset":22188,"byteLength":22188,"target":34962,"byteStride":12},{"buffer":0,"byteOffset":44376,"byteLength":14792,"target":34962,"byteStride":8},{"buffer":0,"byteOffset":59168,"byteLength":14792,"target":34962,"byteStride":8},{"buffer":0,"byteOffset":73960,"byteLength":5904,"target":34963}],"buffers":[{"byteLength":79864,"uri":"data:application/octet-stream;base64,"}],"accessors":[{"bufferView":0,"componentType":5126,"count":1849,"max":[8,2.0625,8],"min":[-1.8193789133407173e-15,-0.0003366237797308713,-2.1128654381641354e-12],"type":"VEC3"},{"bufferView":1,"componentType":5126,"count":1849,"max":[1,1,1],"min":[-1,-4.225730876328271e-12,-1],"type":"VEC3"},{"bufferView":2,"componentType":5126,"count":1849,"max":[1,1],"min":[0.3125,0.0625],"type":"VEC2"},{"bufferView":3,"componentType":5126,"count":1849,"max":[-1,0],"min":[-1,0],"type":"VEC2"},{"bufferView":4,"componentType":5123,"count":2952,"max":[1848],"min":[0],"type":"SCALAR"}],"materials":[{"pbrMetallicRoughness":{"metallicFactor":0,"roughnessFactor":1,"baseColorTexture":{"index":0}},"alphaMode":"MASK","alphaCutoff":0.01,"name":"texture_1"}],"textures":[{"sampler":0,"source":0,"name":"texture_1"}],"samplers":[{"magFilter":9728,"minFilter":9728,"wrapS":33071,"wrapT":33071}],"images":[{"mimeType":"image/png","uri":"data:image/png;base64,"}],"meshes":[{"primitives":[{"mode":4,"attributes":{"POSITION":0,"NORMAL":1,"TEXCOORD_0":2,"_UVANIMATION":3},"indices":4,"material":0}]}]}